# AST/ASF file generated using VICON BodyLanguage
# -----------------------------------------------
:version 1.10
:name VICON
:units
  mass 1.0
  length 0.45
  angle deg
:documentation
   .ast/.asf automatically generated from VICON data using
   VICON BodyBuilder and BodyLanguage model FoxedUp or BRILLIANT.MOD
:root
   order TX TY TZ RX RY RZ
   axis XYZ
   position 0 0 0  
   orientation 0 0 0 
:bonedata
  begin
     id 1 
     name lhipjoint
     direction 0.63403 -0.759788 0.143974 
     length 2.51904 
     axis 0 0 0  XYZ
  end
  begin
     id 2 
     name lfemur
     direction 0.34202 -0.939693 0  
     length 7.42313  
     axis 0 0 20  XYZ
    dof rx ry rz
    limits (-160.0 20.0)
           (-70.0 70.0)
           (-60.0 70.0)
  end
  begin
     id 3 
     name ltibia
     direction 0.34202 -0.939693 0   
     length 8.10141   
     axis 0 0 20   XYZ
    dof rx
    limits (-10.0 170.0)
  end
  begin
     id 4 
     name lfoot
     direction 0.0927455 -0.254816 0.962532   
     length 2.14078   
     axis -90 7.62852e-016 20   XYZ
    dof rx rz
    limits (-45.0 90.0)
           (-70.0 20.0)
  end
  begin
     id 5 
     name ltoes
     direction 1.53556e-011 -4.21949e-011 1   
     length 1.07182   
     axis -90 7.62852e-016 20   XYZ
    dof rx
    limits (-90.0 20.0)
  end
  begin
     id 6 
     name rhipjoint
     direction -0.659892 -0.738223 0.139888   
     length 2.59263  
     axis 0 0 0  XYZ 
  end
  begin
     id 7 
     name rfemur
     direction -0.34202 -0.939693 0   
     length 7.58575   
     axis 0 0 -20   XYZ
    dof rx ry rz
    limits (-160.0 20.0)
           (-70.0 70.0)
           (-70.0 60.0)
  end
  begin
     id 8 
     name rtibia
     direction -0.34202 -0.939693 0   
     length 8.19358   
     axis 0 0 -20   XYZ
    dof rx
    limits (-10.0 170.0)
 end
 begin
     id 9 
     name rfoot
     direction -0.0856543 -0.235333 0.968133   
     length 2.13415  
     axis -90 -7.62852e-016 -20   XYZ
    dof rx rz
    limits (-45.0 90.0)
           (-20.0 70.0)
  end
  begin
     id 10 
     name rtoes
     direction -1.53551e-011 -4.21811e-011 1   
     length 1.07055   
     axis -90 -7.62852e-016 -20   XYZ
    dof rx
    limits (-90.0 20.0)
  end
  begin
     id 11 
     name lowerback
     direction 0.025219 0.998394 -0.0507326   
     length 1.91844   
     axis 0 0 0   XYZ
    dof rx ry rz
    limits (-20.0 45.0)
           (-30.0 30.0)
           (-30.0 30.0)
  end
  begin
     id 12 
     name upperback
     direction 0.0213103 0.99967 -0.0143101   
     length 1.92246   
     axis 0 0 0   XYZ
    dof rx ry rz
    limits (-20.0 45.0)
           (-30.0 30.0)
           (-30.0 30.0)
  end
  begin
     id 13 
     name thorax
     direction 0.00920974 0.99991 0.00971518   
     length 1.92239   
     axis 0 0 0   XYZ
    dof rx ry rz
    limits (-20.0 45.0)
           (-30.0 30.0)
           (-30.0 30.0)
  end
  begin
     id 14 
     name lowerneck
     direction 0.0598257 0.997249 0.0437612   
     length 3.13679   
     axis 0 0 0   XYZ
    dof rx ry rz
    limits (-20.0 45.0)
           (-30.0 30.0)
           (-30.0 30.0)
  end
  begin
     id 15 
     name upperneck
     direction -0.035342 0.999338 0.00863891   
     length 3.16283   
     axis 0 0 0   XYZ
    dof rx ry rz
    limits (-20.0 45.0)
           (-30.0 30.0)
           (-30.0 30.0)
  end
  begin
     id 16
     name head
     direction 0.37144 0.811566 0.450991  
     length 1.2838  
     axis 0 0 0   XYZ
    dof rx ry rz
    limits (-20.0 45.0)
           (-30.0 30.0)
           (-30.0 30.0)
  end
  begin
     id 17 
     name lclavicle
     direction 0.961094 0.274654 -0.0293862  
     length 3.63466  
     axis 0 0 0   XYZ
    dof ry rz
    limits (-20.0 10.0)
           (0.0 20.0)
  end
  begin
     id 18 
     name lhumerus
     direction 1 -4.48963e-011 1.10303e-027   
     length 5.12842   
     axis 180 -30 -90   XYZ
    dof rx ry rz
    limits (-60.0 90.0)
           (-90.0 90.0)
           (-90.0 90.0)
  end
  begin
     id 19
     name lradius
     direction 1 -4.48968e-011 4.13199e-027   
     length 3.47396   
     axis 180 -30 -90   XYZ
    dof rx
    limits (-10.0 170.0)
  end
  begin
     id 20
     name lwrist
     direction 1 -4.48948e-011 9.12708e-027   
     length 1.73698   
     axis -6.84618e-015 90 90   XYZ
    dof ry
    limits (-180.0 0.0)
 end
  begin
     id 21 
     name lhand
     direction 1 -4.49057e-011 1.82749e-026   
     length 0.728607   
     axis -1.16502e-014 90 90   XYZ
    dof rx rz
    limits (-90.0 90.0)
           (-45.0 45.0)
  end
  begin
     id 22 
     name lfingers
     direction 1 -4.48912e-011 3.64949e-026   
     length 0.587422   
     axis -2.33008e-014 90 90   XYZ
    dof rx
    limits (0.0 90.0)
  end
  begin
     id 23
     name lthumb
     direction 0.707107 -6.34995e-011 0.707107   
     length 0.843424   
     axis -90 45 5.69224e-014   XYZ
    dof rx rz
    limits (-45.0 45.0)
           (-45.0 45.0)
  end
  begin
     id 24 
     name rclavicle
     direction -0.90514 0.421881 -0.0523369   
     length 3.57139  
     axis 0 0 0   XYZ 
    dof ry rz
    limits (-10.0 20.0)
           (-20.0 0.0)
  end
  begin
     id 25 
     name rhumerus
     direction -1 -4.48954e-011 -1.76662e-027  
     length 5.48477   
     axis 180 30 90   XYZ
    dof rx ry rz
    limits (-90.0 60.0)
           (-90.0 90.0)
           (-90.0 90.0)
  end
  begin
     id 26 
     name rradius
     direction -1 -4.48982e-011 1.26841e-027   
     length 3.47856   
     axis 180 30 90   XYZ
    dof rx
    limits (-10.0 170.0)
  end
  begin
     id 27 
     name rwrist
     direction -1 -4.49037e-011 9.13554e-027   
     length 1.73928   
     axis -6.84618e-015 -90 -90   XYZ
    dof ry
    limits (-180.0 0.0)
  end
  begin
     id 28
     name rhand
     direction -1 -4.48871e-011 1.82397e-026   
     length 0.709974   
     axis -1.16502e-014 -90 -90   XYZ
    dof rx rz
    limits (-90.0 90.0)
           (-45.0 45.0)
  end
  begin
     id 29
     name rfingers
     direction -1 -4.48994e-011 3.65258e-026   
     length 0.572399   
     axis -2.33008e-014 -90 -90   XYZ
    dof rx
    limits (0.0 90.0)
  end
  begin
     id 30
     name rthumb
     direction -0.707107 -6.34861e-011 0.707107   
     length 0.821855   
     axis -90 -45 -5.69224e-014   XYZ
    dof rx rz
    limits (-45.0 45.0)
           (-45.0 45.0)
  end
:hierarchy
  begin
    root lhipjoint rhipjoint lowerback
    lhipjoint lfemur
    lfemur ltibia
    ltibia lfoot
    lfoot ltoes
    rhipjoint rfemur
    rfemur rtibia
    rtibia rfoot
    rfoot rtoes
    lowerback upperback
    upperback thorax
    thorax lowerneck lclavicle rclavicle
    lowerneck upperneck
    upperneck head
    lclavicle lhumerus
    lhumerus lradius
    lradius lwrist
    lwrist lhand lthumb
    lhand lfingers
    rclavicle rhumerus
    rhumerus rradius
    rradius rwrist
    rwrist rhand rthumb
    rhand rfingers
  end

#!OML:ASF F:\VICON\USERDATA\INSTALL\Justin1\Justin1.ASF
:FULLY-SPECIFIED
:DEGREES
1281
root -0.696138 18.1772 -4.28928 2.98493 3.91997 -2.81931
lowerback 4.28886 -0.656389 3.61357
upperback -0.669354 -0.563164 3.77111
thorax -3.09662 -0.309346 1.90258
lowerneck -15.2891 -1.98035 -3.15475
upperneck 12.9798 -1.25404 -4.50993
head 6.46648 -1.15158 -1.06154
rclavicle -2.17172e-014 5.48646e-014
rhumerus -35.7582 -19.5165 -67.6335
rradius 23.6584
rwrist 0.836898
rhand -25.3762 10.9815
rfingers 7.12502
rthumb 1.14826 -18.9951
lclavicle -2.17172e-014 5.48646e-014
lhumerus -34.1498 10.1009 86.4707
lradius 32.7156
lwrist -15.5853
lhand -5.9429 25.4963
lfingers 7.12502
lthumb 19.8872 54.4988
rfemur -16.4638 6.2195 29.3272
rtibia 32.9916
rfoot -16.8134 -10.5409
rtoes 36.0009
lfemur -15.8073 -10.7949 -15.8964
ltibia 30.6388
lfoot -16.231 7.53081
ltoes 2.81243
1282
root -0.682896 18.175 -4.30049 3.0543 3.659 -2.83755
lowerback 4.38686 -0.634207 3.63509
upperback -0.734485 -0.523566 3.74867
thorax -3.21995 -0.291549 1.86697
lowerneck -15.4116 -1.9516 -3.10705
upperneck 12.999 -1.21671 -4.52148
head 6.4932 -1.13405 -1.07105
rclavicle 1.04859e-014 -1.59028e-015
rhumerus -35.9117 -19.1096 -67.9349
rradius 24.0625
rwrist 0.266876
rhand -25.2647 10.9429
rfingers 7.12502
rthumb 1.25595 -19.0332
lclavicle 1.04859e-014 -1.59028e-015
lhumerus -34.1386 9.85535 86.5236
lradius 32.8076
lwrist -15.3609
lhand -6.07053 25.2413
lfingers 7.12502
lthumb 19.7646 54.2564
rfemur -16.606 6.3657 29.2752
rtibia 33.022
rfoot -16.7191 -10.4644
rtoes 35.9428
lfemur -15.903 -10.8543 -15.9306
ltibia 30.7046
lfoot -16.1664 7.86481
ltoes 2.70738
1283
root -0.6723 18.1728 -4.3132 3.08767 3.42318 -3.10789
lowerback 4.48569 -0.603109 3.85816
upperback -0.784808 -0.458342 3.81248
thorax -3.32996 -0.263819 1.80594
lowerneck -15.5473 -1.93093 -3.16908
upperneck 13.0818 -1.18186 -4.4105
head 6.5441 -1.11431 -1.02451
rclavicle 1.05356e-014 7.15625e-015
rhumerus -36.0324 -18.762 -68.1776
rradius 24.365
rwrist -0.253664
rhand -25.1844 11.0728
rfingers 7.12502
rthumb 1.33349 -18.9028
lclavicle 1.05356e-014 7.15625e-015
lhumerus -34.1433 9.71584 86.5552
lradius 32.8435
lwrist -15.3482
lhand -6.04769 24.8608
lfingers 7.12502
lthumb 19.7865 53.8737
rfemur -16.7329 6.50637 29.5197
rtibia 33.0555
rfoot -16.7134 -10.3956
rtoes 35.7569
lfemur -15.9832 -10.8835 -15.6625
ltibia 30.7366
lfoot -16.1781 8.07004
ltoes 3.30082
1284
root -0.65996 18.1735 -4.31728 3.04025 3.25317 -3.15358
lowerback 4.47665 -0.597252 3.83761
upperback -0.705539 -0.455442 3.85403
thorax -3.24225 -0.260472 1.85901
lowerneck -15.8027 -1.88266 -3.2374
upperneck 13.1199 -1.0946 -4.35514
head 6.60127 -1.07464 -0.990456
rclavicle 3.8763e-015 -5.48646e-014
rhumerus -35.9239 -18.7549 -68.2929
rradius 24.4517
rwrist -0.329108
rhand -25.1486 11.5874
rfingers 7.12502
rthumb 1.36802 -18.388
lclavicle 3.8763e-015 -5.48646e-014
lhumerus -33.9906 9.5924 86.715
lradius 32.936
lwrist -15.3521
lhand -5.98651 24.9373
lfingers 7.12502
lthumb 19.8453 53.9441
rfemur -16.7121 6.52187 29.5203
rtibia 33.1013
rfoot -16.7577 -10.2839
rtoes 35.6787
lfemur -15.8815 -10.8596 -15.6947
ltibia 30.7218
lfoot -16.2577 8.22913
ltoes 3.56042
1285
root -0.64378 18.1766 -4.31651 3.0698 3.04371 -2.91577
lowerback 4.38578 -0.601118 3.57433
upperback -0.681952 -0.483752 3.82357
thorax -3.16404 -0.269462 1.97501
lowerneck -15.9383 -1.83353 -3.29921
upperneck 13.1435 -1.00166 -4.37837
head 6.63327 -1.03718 -0.980422
rclavicle -9.44227e-016 -2.62396e-014
rhumerus -35.9421 -18.589 -68.4196
rradius 24.6753
rwrist -0.413332
rhand -24.9534 12.0094
rfingers 7.12502
rthumb 1.5566 -17.9647
lclavicle -9.44227e-016 -2.62396e-014
lhumerus -33.9228 9.49572 86.8862
lradius 33.1034
lwrist -15.3562
lhand -5.89318 25.5094
lfingers 7.12502
lthumb 19.935 54.5069
rfemur -16.7484 6.44774 29.1889
rtibia 33.1653
rfoot -16.8119 -10.0511
rtoes 35.6708
lfemur -15.771 -10.9307 -16.067
ltibia 30.679
lfoot -16.2696 8.55931
ltoes 3.82312
